<svg width="150" height="150">
  <g transform="translate(25, 25)">
    <rect width="100" height="100" x="0" y="0" fill="none" stroke="#F00"></rect>  
    <path id="74037" d="M-.001.454H100V66q1 10 5 18 4 13 17 16H100 0L-.001.454Z" fill="none" stroke="#000" stroke-width="0.1"></path> 
    <path id="74170" d="M-.001.454 0 66C6 90 7 89 24 97c0 1 8 2 24.48 3.333H99.878V.454H-.001Z" fill="none" stroke="#000" stroke-width="0.1"></path>
    <path id="74103" d="M-.001.454 0 95C27 77 36 96 35 99H100V.454H-.001Z" fill="none" stroke="#000" stroke-width="0.1"></path>
    <path id="74063" d="M0 0V100L30 100C40 110 50 110 60 100H100V0Z" fill="none" stroke="#000" stroke-width="0.1"></path>
    <path id="74152" d="M100 0V100H0V30L30 0Z" fill="none" stroke="#000" stroke-width="0.1"></path>
    <path id="74107" d="M0 0V100H100V25L121 4C140-12 130-24 105 0L60 0C50 10 40 10 30 0Z" fill="none" stroke="#000" stroke-width="0.1"></path>
  </g>
</svg>
